<svg width="360" height="150" viewBox="0 0 360 150" fill="none" xmlns="http://www.w3.org/2000/svg">
<path d="M110.417 111.997L97.3189 107.23L107.193 80.1002C110.642 70.6248 110.895 60.5228 107.924 50.8869C104.953 41.2511 99.0565 33.0453 90.8704 27.157C74.8419 15.6261 53.305 15.6266 37.2783 27.157C29.0925 33.0455 23.1955 41.2511 20.2245 50.8869C17.2541 60.5228 17.5063 70.6248 20.9554 80.1002L30.8298 107.23L17.7321 111.997L7.85749 84.8677C3.36105 72.5139 3.03167 59.3439 6.90464 46.7807C10.7781 34.2179 18.466 23.5192 29.1381 15.8422C50.0345 0.809767 78.1138 0.809767 99.0102 15.8422C109.682 23.5192 117.37 34.2176 121.244 46.7807C125.116 59.3439 124.788 72.5139 120.291 84.8677L110.417 111.997Z" fill="#E50914"/>
<path d="M26.5053 132.365C29.5878 133.002 32.7868 132.769 35.7447 131.693L39.2668 130.41L23.849 88.05L20.3269 89.332C17.369 90.4086 14.7686 92.2862 12.8164 94.7554C9.02007 99.5566 7.98337 105.982 10.0768 111.734L13.493 121.12C15.5864 126.872 20.5111 131.127 26.5053 132.365Z" fill="#E50914"/>
<path d="M101.643 132.365C98.5606 133.002 95.3616 132.769 92.4037 131.693L88.8818 130.41L104.3 88.05L107.822 89.332C110.78 90.4086 113.38 92.2862 115.332 94.7554C119.129 99.5566 120.165 105.982 118.072 111.734L114.656 121.12C112.562 126.872 107.637 131.127 101.643 132.365Z" fill="#E50914"/>
<path d="M150.025 132.716C148.938 132.716 148.025 132.346 147.284 131.605C146.543 130.864 146.173 129.951 146.173 128.864V78.7161C146.173 77.5803 146.543 76.6667 147.284 75.9754C148.025 75.2346 148.938 74.8643 150.025 74.8643H163.358C167.062 74.8643 170.346 75.6544 173.21 77.2346C176.074 78.7655 178.296 80.8889 179.877 83.605C181.506 86.321 182.321 89.4815 182.321 93.0865C182.321 96.642 181.432 99.7778 179.654 102.494C177.877 105.161 175.457 107.185 172.395 108.568L183.728 126.79C184.617 128.222 184.741 129.58 184.099 130.864C183.457 132.099 182.346 132.716 180.765 132.716C179.333 132.716 178.222 132.099 177.432 130.864L164.691 110.42C164.247 110.42 163.802 110.42 163.358 110.42H153.877V128.864C153.877 129.951 153.506 130.864 152.765 131.605C152.074 132.346 151.161 132.716 150.025 132.716ZM153.877 103.309H163.358C166.716 103.309 169.481 102.37 171.654 100.494C173.827 98.568 174.914 96.0988 174.914 93.0865C174.914 89.8272 173.827 87.1606 171.654 85.0865C169.481 83.0124 166.716 81.9754 163.358 81.9754H153.877V103.309ZM209.123 133.012C205.519 133.012 202.284 132.124 199.42 130.346C196.556 128.519 194.284 126.074 192.605 123.012C190.975 119.901 190.161 116.395 190.161 112.494C190.161 108.593 191.049 105.086 192.827 101.975C194.654 98.8643 197.099 96.4198 200.161 94.642C203.272 92.8149 206.753 91.9013 210.605 91.9013C214.457 91.9013 217.914 92.8149 220.975 94.642C224.037 96.4198 226.457 98.8643 228.235 101.975C230.062 105.086 230.975 108.593 230.975 112.494V129.012C230.975 130.099 230.605 131.012 229.864 131.753C229.173 132.444 228.284 132.79 227.198 132.79C226.111 132.79 225.198 132.444 224.457 131.753C223.765 131.012 223.42 130.099 223.42 129.012V126.272C221.691 128.346 219.593 130 217.123 131.235C214.704 132.42 212.037 133.012 209.123 133.012ZM210.605 126.346C213.123 126.346 215.37 125.753 217.346 124.568C219.321 123.333 220.877 121.679 222.012 119.605C223.148 117.482 223.716 115.111 223.716 112.494C223.716 109.827 223.148 107.457 222.012 105.383C220.877 103.259 219.321 101.605 217.346 100.42C215.37 99.1852 213.123 98.568 210.605 98.568C208.136 98.568 205.889 99.1852 203.864 100.42C201.889 101.605 200.309 103.259 199.123 105.383C197.988 107.457 197.42 109.827 197.42 112.494C197.42 115.111 197.988 117.482 199.123 119.605C200.309 121.679 201.889 123.333 203.864 124.568C205.889 125.753 208.136 126.346 210.605 126.346ZM260.59 133.012C256.738 133.012 253.257 132.124 250.146 130.346C247.084 128.519 244.64 126.049 242.812 122.938C241.035 119.827 240.146 116.321 240.146 112.42C240.146 108.519 240.961 105.037 242.59 101.975C244.269 98.8643 246.541 96.4198 249.405 94.642C252.269 92.8149 255.504 91.9013 259.109 91.9013C262.022 91.9013 264.714 92.5186 267.183 93.7531C269.652 94.9383 271.726 96.568 273.405 98.642V78.642C273.405 77.5062 273.751 76.5926 274.442 75.9013C275.183 75.2099 276.096 74.8643 277.183 74.8643C278.319 74.8643 279.232 75.2099 279.923 75.9013C280.615 76.5926 280.961 77.5062 280.961 78.642V112.42C280.961 116.321 280.047 119.827 278.22 122.938C276.442 126.049 274.022 128.519 270.961 130.346C267.899 132.124 264.442 133.012 260.59 133.012ZM260.59 126.346C263.109 126.346 265.356 125.753 267.331 124.568C269.306 123.333 270.862 121.654 271.998 119.531C273.133 117.407 273.701 115.037 273.701 112.42C273.701 109.753 273.133 107.383 271.998 105.309C270.862 103.235 269.306 101.605 267.331 100.42C265.356 99.1852 263.109 98.568 260.59 98.568C258.121 98.568 255.874 99.1852 253.849 100.42C251.874 101.605 250.294 103.235 249.109 105.309C247.973 107.383 247.405 109.753 247.405 112.42C247.405 115.037 247.973 117.407 249.109 119.531C250.294 121.654 251.874 123.333 253.849 124.568C255.874 125.753 258.121 126.346 260.59 126.346ZM298.822 132.716C297.736 132.716 296.822 132.37 296.082 131.679C295.39 130.938 295.044 130.025 295.044 128.938V95.9754C295.044 94.8396 295.39 93.926 296.082 93.2346C296.822 92.5433 297.736 92.1976 298.822 92.1976C299.958 92.1976 300.872 92.5433 301.563 93.2346C302.254 93.926 302.6 94.8396 302.6 95.9754V128.938C302.6 130.025 302.254 130.938 301.563 131.679C300.872 132.37 299.958 132.716 298.822 132.716ZM298.822 85.605C297.489 85.605 296.328 85.1359 295.341 84.1976C294.402 83.2099 293.933 82.0494 293.933 80.7161C293.933 79.3828 294.402 78.247 295.341 77.3087C296.328 76.321 297.489 75.8272 298.822 75.8272C300.156 75.8272 301.291 76.321 302.23 77.3087C303.217 78.247 303.711 79.3828 303.711 80.7161C303.711 82.0494 303.217 83.2099 302.23 84.1976C301.291 85.1359 300.156 85.605 298.822 85.605ZM335.026 133.012C331.026 133.012 327.495 132.148 324.433 130.42C321.372 128.642 318.952 126.222 317.174 123.161C315.446 120.049 314.582 116.494 314.582 112.494C314.582 108.444 315.446 104.889 317.174 101.827C318.952 98.7161 321.372 96.2964 324.433 94.568C327.495 92.7902 331.026 91.9013 335.026 91.9013C338.977 91.9013 342.483 92.7902 345.544 94.568C348.606 96.2964 351.001 98.7161 352.73 101.827C354.507 104.889 355.396 108.444 355.396 112.494C355.396 116.494 354.532 120.049 352.804 123.161C351.075 126.222 348.68 128.642 345.619 130.42C342.557 132.148 339.026 133.012 335.026 133.012ZM335.026 126.346C337.594 126.346 339.865 125.753 341.841 124.568C343.816 123.383 345.347 121.753 346.433 119.679C347.569 117.605 348.137 115.21 348.137 112.494C348.137 109.778 347.569 107.383 346.433 105.309C345.347 103.185 343.816 101.531 341.841 100.346C339.865 99.1605 337.594 98.568 335.026 98.568C332.458 98.568 330.186 99.1605 328.211 100.346C326.236 101.531 324.68 103.185 323.544 105.309C322.409 107.383 321.841 109.778 321.841 112.494C321.841 115.21 322.409 117.605 323.544 119.679C324.68 121.753 326.236 123.383 328.211 124.568C330.186 125.753 332.458 126.346 335.026 126.346Z" fill="#E50914"/>
<path d="M150.025 65.3087C148.938 65.3087 148.025 64.9383 147.284 64.1976C146.543 63.4568 146.173 62.5432 146.173 61.4568V11.3086C146.173 10.1728 146.543 9.25926 147.284 8.5679C148.025 7.82716 148.938 7.45679 150.025 7.45679C151.506 7.45679 152.642 8.14814 153.432 9.53086L175.432 53.605L196.84 9.53086C197.63 8.14814 198.765 7.45679 200.247 7.45679C201.333 7.45679 202.247 7.82716 202.988 8.5679C203.728 9.25926 204.099 10.1728 204.099 11.3086V61.4568C204.099 62.5432 203.704 63.4568 202.914 64.1976C202.173 64.9383 201.284 65.3087 200.247 65.3087C199.161 65.3087 198.247 64.9383 197.506 64.1976C196.765 63.4568 196.395 62.5432 196.395 61.4568V24.642L178.469 61.1605C177.63 62.4445 176.519 63.0864 175.136 63.0864C173.506 63.0864 172.321 62.321 171.58 60.7901L153.877 25.3086V61.4568C153.877 62.5432 153.506 63.4568 152.765 64.1976C152.025 64.9383 151.111 65.3087 150.025 65.3087ZM222.722 65.3087C221.636 65.3087 220.722 64.963 219.981 64.2716C219.29 63.5309 218.944 62.6173 218.944 61.5309V28.5679C218.944 27.4321 219.29 26.5185 219.981 25.8272C220.722 25.1358 221.636 24.7901 222.722 24.7901C223.858 24.7901 224.772 25.1358 225.463 25.8272C226.154 26.5185 226.5 27.4321 226.5 28.5679V61.5309C226.5 62.6173 226.154 63.5309 225.463 64.2716C224.772 64.963 223.858 65.3087 222.722 65.3087ZM222.722 18.1975C221.389 18.1975 220.228 17.7284 219.241 16.7901C218.302 15.8025 217.833 14.642 217.833 13.3086C217.833 11.9753 218.302 10.8395 219.241 9.90123C220.228 8.91358 221.389 8.41975 222.722 8.41975C224.056 8.41975 225.191 8.91358 226.13 9.90123C227.117 10.8395 227.611 11.9753 227.611 13.3086C227.611 14.642 227.117 15.8025 226.13 16.7901C225.191 17.7284 224.056 18.1975 222.722 18.1975ZM255.298 65.605C251.841 65.605 248.631 65.0864 245.668 64.0494C242.754 62.963 240.483 61.605 238.853 59.9753C238.112 59.1852 237.791 58.2963 237.89 57.3087C238.038 56.2716 238.532 55.4321 239.372 54.7901C240.359 54 241.322 53.679 242.261 53.8272C243.248 53.9259 244.088 54.3457 244.779 55.0864C245.619 56.0247 246.952 56.9136 248.779 57.7531C250.656 58.5432 252.73 58.9383 255.001 58.9383C257.865 58.9383 260.038 58.4692 261.52 57.5309C263.051 56.5926 263.841 55.3827 263.89 53.9013C263.94 52.4198 263.223 51.1358 261.742 50.0494C260.31 48.963 257.668 48.0741 253.816 47.3827C248.828 46.3951 245.199 44.9136 242.927 42.9383C240.705 40.963 239.594 38.5432 239.594 35.679C239.594 33.1605 240.335 31.0864 241.816 29.4568C243.298 27.7778 245.199 26.5432 247.52 25.7531C249.841 24.9136 252.261 24.4938 254.779 24.4938C258.038 24.4938 260.927 25.0124 263.446 26.0494C265.964 27.0864 267.964 28.5185 269.446 30.3457C270.137 31.1358 270.458 31.9753 270.409 32.8642C270.359 33.7037 269.94 34.4198 269.149 35.0124C268.359 35.5556 267.421 35.7284 266.335 35.5309C265.248 35.3333 264.335 34.8889 263.594 34.1975C262.359 33.0124 261.026 32.1975 259.594 31.7531C258.162 31.3087 256.507 31.0864 254.631 31.0864C252.458 31.0864 250.606 31.4568 249.075 32.1975C247.594 32.9383 246.853 34.0247 246.853 35.4568C246.853 36.3457 247.075 37.1605 247.52 37.9012C248.014 38.5926 248.952 39.2346 250.335 39.8272C251.717 40.3704 253.742 40.9136 256.409 41.4568C261.989 42.5432 265.841 44.0988 267.964 46.1235C270.137 48.0988 271.223 50.5432 271.223 53.4568C271.223 55.7284 270.606 57.7778 269.372 59.605C268.186 61.4321 266.409 62.8889 264.038 63.9753C261.717 65.0618 258.804 65.605 255.298 65.605ZM297.665 65.605C294.061 65.605 290.826 64.7161 287.962 62.9383C285.098 61.1111 282.826 58.6667 281.147 55.605C279.517 52.4938 278.702 48.9877 278.702 45.0864C278.702 41.1852 279.591 37.679 281.369 34.5679C283.196 31.4568 285.641 29.0124 288.702 27.2346C291.814 25.4074 295.295 24.4938 299.147 24.4938C302.999 24.4938 306.456 25.4074 309.517 27.2346C312.579 29.0124 314.999 31.4568 316.777 34.5679C318.604 37.679 319.517 41.1852 319.517 45.0864V61.605C319.517 62.6914 319.147 63.605 318.406 64.3457C317.715 65.0371 316.826 65.3827 315.74 65.3827C314.653 65.3827 313.74 65.0371 312.999 64.3457C312.307 63.605 311.962 62.6914 311.962 61.605V58.8642C310.233 60.9383 308.135 62.5926 305.665 63.8272C303.246 65.0124 300.579 65.605 297.665 65.605ZM299.147 58.9383C301.665 58.9383 303.912 58.3457 305.888 57.1605C307.863 55.9259 309.419 54.2716 310.554 52.1975C311.69 50.0741 312.258 47.7037 312.258 45.0864C312.258 42.4198 311.69 40.0494 310.554 37.9753C309.419 35.8519 307.863 34.1975 305.888 33.0124C303.912 31.7778 301.665 31.1605 299.147 31.1605C296.678 31.1605 294.431 31.7778 292.406 33.0124C290.431 34.1975 288.851 35.8519 287.665 37.9753C286.53 40.0494 285.962 42.4198 285.962 45.0864C285.962 47.7037 286.53 50.0741 287.665 52.1975C288.851 54.2716 290.431 55.9259 292.406 57.1605C294.431 58.3457 296.678 58.9383 299.147 58.9383Z" fill="white"/>
</svg>
